<svg width="216" height="162" viewBox="0 0 216 162" fill="none" xmlns="http://www.w3.org/2000/svg">
<g clip-path="url(#clip0_28_9)">
<path fill-rule="evenodd" clip-rule="evenodd" d="M0 0H216V162H0V0Z" fill="#229E45"/>
<path fill-rule="evenodd" clip-rule="evenodd" d="M108.472 147.15L210.229 81.1013L107.865 14.85L5.77124 81.2362L108.472 147.15Z" fill="#F8E509"/>
<path fill-rule="evenodd" clip-rule="evenodd" d="M152.82 81C152.82 104.726 133.549 123.964 109.755 123.964C101.252 123.95 92.9445 121.416 85.8818 116.682C78.8191 111.948 73.3185 105.226 70.0755 97.3661C66.8324 89.5062 65.9925 80.8613 67.6619 72.5241C69.3314 64.187 73.4351 56.5319 79.4545 50.5267C85.4739 44.5215 93.1386 40.4358 101.48 38.786C109.821 37.1362 118.464 37.9964 126.316 41.2579C134.168 44.5195 140.877 50.0358 145.595 57.1097C150.312 64.1836 152.827 72.4973 152.82 81Z" fill="#2B49A3"/>
<path fill-rule="evenodd" clip-rule="evenodd" d="M95.6137 106.751L94.2637 105.975L92.9137 106.65L93.2175 105.131L92.1375 103.984L93.6562 103.815L94.3988 102.465L95.04 103.882L96.525 104.153L95.4113 105.165M124.436 114.041L123.12 113.265L121.77 113.94L122.04 112.421L120.994 111.307L122.512 111.139L123.221 109.755L123.896 111.172L125.381 111.443L124.234 112.489M112.016 102.364L110.869 101.689L109.687 102.296L109.957 100.98L109.012 100.001L110.362 99.8662L110.97 98.6512L111.51 99.9L112.826 100.136L111.814 101.047M141.176 98.1787L140.029 97.5037L138.847 98.1113L139.117 96.795L138.206 95.85L139.522 95.715L140.13 94.5338L140.67 95.7488L141.952 95.985L140.974 96.8625M111.51 89.4375L110.16 88.695L108.81 89.37L109.08 87.8175L108.034 86.7037L109.552 86.535L110.261 85.1513L110.936 86.5687L112.421 86.8387L111.274 87.9188M75.9713 76.1062L74.6213 75.3638L73.2713 76.0388L73.6088 74.4862L72.495 73.3725L74.0475 73.2037L74.7225 71.82L75.3975 73.2375L76.8825 73.5075L75.7687 74.5537M80.2575 93.8588L78.9075 93.0825L77.5575 93.7575L77.8612 92.2387L76.7812 91.125L78.3 90.9225L79.0088 89.5725L79.6838 90.99L81.1687 91.26L80.055 92.3063M124.605 69.5925L123.39 68.9175L122.175 69.525L122.445 68.175L121.5 67.1625L122.85 66.9937L123.491 65.7787L124.065 67.0612L125.415 67.2975L124.402 68.2088M122.141 81.135L121.23 80.595L120.251 81.0675L120.454 79.9875L119.711 79.2112L120.791 79.0763L121.297 78.1312L121.736 79.1437L122.749 79.3125L122.006 80.055M74.0138 97.065L73.1025 96.5588L72.1912 96.9975L72.3937 95.985L71.685 95.2425L72.6975 95.1075L73.17 94.1963L73.6088 95.1412L74.6213 95.3438L73.845 96.0188M141.412 101.182L140.67 100.811L139.927 101.149L140.096 100.372L139.522 99.8325L140.332 99.7313L140.737 99.0563L141.075 99.7313L141.919 99.9L141.277 100.406" fill="#FFFFEF"/>
<path fill-rule="evenodd" clip-rule="evenodd" d="M74.0138 97.065L73.1025 96.5588L72.1912 96.9975L72.3937 95.985L71.685 95.2425L72.6975 95.1075L73.17 94.1963L73.6088 95.1412L74.6213 95.3437L73.845 96.0187" fill="#FFFFEF"/>
<path fill-rule="evenodd" clip-rule="evenodd" d="M74.0138 97.065L73.1025 96.5588L72.1912 96.9975L72.3937 95.985L71.685 95.2425L72.6975 95.1075L73.17 94.1963L73.6088 95.1412L74.6213 95.3437L73.845 96.0187M88.1213 97.0312L87.2437 96.5588L86.3325 96.9975L86.535 95.985L85.8263 95.2425L86.8387 95.1075L87.3113 94.1963L87.75 95.1412L88.7625 95.31L87.9863 96.0187M86.3662 101.756L85.4888 101.25L84.5775 101.722L84.78 100.71L84.0713 99.9338L85.0838 99.7988L85.5562 98.8875L85.995 99.8325L87.0075 100.035L86.2312 100.71M115.729 93.2175L114.851 92.6775L113.906 93.15L114.109 92.1375L113.434 91.3613L114.446 91.26L114.919 90.3488L115.324 91.2937L116.336 91.4625L115.594 92.1713M107.122 93.1838L106.211 92.6775L105.3 93.15L105.503 92.1375L104.828 91.3613L105.84 91.26L106.313 90.315L106.718 91.2937L107.73 91.4625L106.988 92.1713M83.7675 90.2137L83.1937 89.8762L82.62 90.1463L82.755 89.505L82.3162 89.0325L82.9575 88.965L83.2275 88.3912L83.4975 88.9988L84.1388 89.1L83.6662 89.5387M140.299 104.861L139.421 104.355L138.51 104.827L138.713 103.815L138.004 103.039L139.016 102.904L139.489 101.993L139.928 102.937L140.94 103.14L140.164 103.815M133.144 105.84L132.401 105.368L131.625 105.772L131.794 104.895L131.22 104.287L132.064 104.186L132.469 103.41L132.806 104.22L133.65 104.355L133.009 104.962M136.519 105.739L135.844 105.334L135.135 105.671L135.27 104.895L134.73 104.321L135.506 104.22L135.878 103.545L136.215 104.22L136.991 104.389L136.418 104.929M146.239 97.2338L145.564 96.8963L144.889 97.2338L145.057 96.4575L144.518 95.8838L145.294 95.7825L145.631 95.1075L145.969 95.8162L146.678 95.9512L146.138 96.4912M133.043 110.599L132.199 110.126L131.288 110.531L131.49 109.586L130.815 108.911L131.828 108.81L132.266 107.966L132.671 108.844L133.684 109.012L132.907 109.654M133.11 114.446L132.3 113.974L131.49 114.412L131.693 113.468L131.051 112.793L131.963 112.657L132.368 111.814L132.739 112.691L133.65 112.86L132.975 113.535M126.563 105.739L125.921 105.334L125.246 105.671L125.381 104.929L124.875 104.355L125.618 104.287L125.955 103.612L126.293 104.287L127.035 104.422L126.495 104.962M120.488 105.739L119.813 105.334L119.138 105.671L119.306 104.929L118.766 104.355L119.543 104.287L119.88 103.612L120.218 104.287L120.926 104.422L120.386 104.962M110.126 96.66L109.451 96.2887L108.776 96.6262L108.945 95.85L108.405 95.31L109.147 95.2088L109.485 94.5338L109.822 95.2088L110.565 95.3775L110.025 95.8838M111.274 115.121L110.734 114.818L110.126 115.121L110.261 114.446L109.822 113.974L110.464 113.906L110.768 113.332L111.038 113.94L111.679 114.041L111.206 114.48M95.6137 85.2525L94.2637 84.4763L92.9137 85.1513L93.2175 83.6325L92.1375 82.5187L93.6563 82.3162L94.3988 80.9662L95.04 82.3838L96.525 82.6537L95.4113 83.7" fill="#FFFFEF"/>
<path fill-rule="evenodd" clip-rule="evenodd" d="M149.985 96.4575C150.821 94.2879 151.476 92.0528 151.943 89.775C129.06 69.6938 103.579 59.4 71.3813 61.5263C70.2135 63.7858 69.2533 66.1468 68.5125 68.58C106.65 64.935 134.663 81.81 149.985 96.4575Z" fill="white"/>
<path d="M139.725 85.185L140.501 85.6237C140.385 85.8529 140.35 86.1144 140.4 86.3662C140.479 86.6105 140.648 86.8156 140.873 86.94C141.109 87.1088 141.345 87.21 141.548 87.1762C141.75 87.1762 141.885 87.075 141.986 86.94C142.045 86.8504 142.069 86.7424 142.054 86.6363C142.026 86.5116 141.968 86.3957 141.885 86.2987C141.818 86.1975 141.649 85.9612 141.379 85.6912C141.101 85.4048 140.893 85.0584 140.771 84.6787C140.687 84.3914 140.709 84.0834 140.833 83.8108C140.957 83.5382 141.174 83.3192 141.446 83.1938C141.692 83.0913 141.963 83.0677 142.223 83.1263C142.54 83.1993 142.839 83.3372 143.1 83.5313C143.573 83.8688 143.876 84.2062 143.978 84.6112C144.024 84.8007 144.03 84.9978 143.995 85.1898C143.96 85.3817 143.885 85.5641 143.775 85.725L142.965 85.2187C143.066 85.0162 143.1 84.8138 143.033 84.645C142.999 84.4763 142.864 84.3075 142.628 84.1725C142.454 84.0331 142.242 83.9506 142.02 83.9362C141.959 83.9342 141.898 83.9488 141.845 83.9785C141.791 84.0083 141.747 84.052 141.716 84.105C141.649 84.2062 141.649 84.3075 141.683 84.4425C141.716 84.5775 141.885 84.8475 142.223 85.185C142.56 85.5225 142.763 85.8262 142.898 86.0287C143.018 86.2499 143.073 86.5011 143.055 86.7523C143.037 87.0036 142.947 87.2444 142.796 87.4463C142.638 87.6757 142.415 87.8521 142.155 87.9525C141.902 88.069 141.619 88.1044 141.345 88.0537C141.041 87.9862 140.738 87.8513 140.4 87.615C139.894 87.2775 139.59 86.9062 139.489 86.5012C139.379 86.042 139.451 85.558 139.691 85.1513L139.725 85.185ZM135.81 82.62L136.654 83.0588C136.549 83.2918 136.525 83.5531 136.586 83.8013C136.673 84.0329 136.841 84.225 137.059 84.3412C137.329 84.51 137.531 84.5775 137.734 84.5437C137.936 84.5437 138.071 84.4425 138.173 84.2737C138.224 84.1935 138.247 84.0987 138.24 84.0037C138.24 83.9025 138.173 83.7675 138.071 83.6662C137.898 83.4575 137.718 83.2549 137.531 83.0588C137.16 82.6875 136.924 82.3838 136.856 82.1138C136.801 81.9401 136.785 81.7564 136.808 81.5757C136.831 81.3949 136.894 81.2215 136.991 81.0675C137.12 80.8592 137.308 80.6945 137.531 80.595C137.763 80.4881 138.022 80.4528 138.274 80.4938C138.586 80.5463 138.884 80.6611 139.151 80.8313C139.658 81.1688 139.961 81.5063 140.063 81.8775C140.124 82.0672 140.144 82.268 140.121 82.466C140.097 82.6641 140.031 82.8548 139.928 83.025L139.084 82.5525C139.185 82.3163 139.219 82.1475 139.151 81.9787C139.084 81.81 138.949 81.6413 138.713 81.5063C138.526 81.3722 138.301 81.3013 138.071 81.3037C138.016 81.3075 137.962 81.3248 137.915 81.3543C137.868 81.3837 137.829 81.4243 137.801 81.4725C137.734 81.5737 137.734 81.675 137.768 81.81C137.801 81.945 138.004 82.215 138.341 82.5525C138.679 82.89 138.915 83.16 139.016 83.3625C139.152 83.5742 139.223 83.8201 139.223 84.0713C139.223 84.3224 139.152 84.5683 139.016 84.78C138.871 85.0154 138.66 85.2032 138.409 85.32C138.156 85.4365 137.873 85.4719 137.599 85.4213C137.251 85.3625 136.919 85.2364 136.62 85.05C136.184 84.8174 135.848 84.4333 135.675 83.97C135.545 83.5194 135.593 83.0359 135.81 82.62ZM131.018 81.3375L133.481 77.2875L136.451 79.1438L136.046 79.8188L133.886 78.4688L133.346 79.38L135.371 80.6287L134.933 81.3037L132.908 80.055L132.233 81.1688L134.494 82.5188L134.089 83.1938L131.018 81.3375ZM124.031 75.6L124.403 74.925L126.225 75.8362L125.381 77.5237C125.111 77.5912 124.774 77.625 124.369 77.5912C123.98 77.5484 123.602 77.434 123.255 77.2537C122.847 77.0548 122.498 76.7522 122.243 76.3763C122.01 76.027 121.892 75.6142 121.905 75.195C121.922 74.7587 122.038 74.3318 122.243 73.9463C122.445 73.5404 122.747 73.1922 123.12 72.9338C123.477 72.6871 123.901 72.5573 124.335 72.5625C124.673 72.5625 125.01 72.6638 125.415 72.9C125.955 73.1363 126.293 73.4738 126.461 73.845C126.637 74.2135 126.673 74.6332 126.563 75.0263L125.651 74.7563C125.707 74.5302 125.683 74.2918 125.584 74.0813C125.483 73.8788 125.314 73.7438 125.044 73.6088C124.886 73.5189 124.712 73.4635 124.531 73.446C124.351 73.4286 124.169 73.4495 123.998 73.5075C123.66 73.6088 123.356 73.9125 123.12 74.385C122.884 74.8575 122.783 75.2962 122.884 75.6675C122.93 75.8436 123.015 76.0073 123.132 76.1472C123.248 76.2872 123.394 76.3999 123.559 76.4775C123.728 76.5788 123.93 76.6463 124.133 76.6463C124.334 76.6768 124.539 76.6768 124.74 76.6463L125.01 76.1063L124.031 75.6ZM93.5888 68.0738L94.2638 63.3488L95.6813 63.585L96.0525 66.8925L97.3688 63.855L98.7863 64.0575L98.1113 68.715L97.2 68.58L97.7738 64.9013L96.2888 68.445L95.3775 68.31L95.0063 64.4963L94.4663 68.2088L93.5888 68.0738ZM88.83 67.5L89.2688 62.775L92.745 63.1125L92.6775 63.9225L90.1463 63.6863L90.045 64.6988L92.4075 64.935L92.3063 65.745L89.9438 65.5088L89.8425 66.7912L92.475 67.0275L92.4075 67.8375L88.83 67.5Z" fill="#309E3A"/>
<path d="M73.0688 64.5637C73.0688 64.0575 73.17 63.6862 73.305 63.3487C73.4233 63.1087 73.5833 62.8916 73.7775 62.7075C73.9506 62.5329 74.1573 62.3951 74.385 62.3025C74.7225 62.2013 75.06 62.1338 75.3975 62.1338C76.1063 62.1338 76.6463 62.4038 77.085 62.8088C77.2939 63.0667 77.4492 63.3638 77.5419 63.6825C77.6346 64.0012 77.6629 64.3352 77.625 64.665C77.625 65.4075 77.3888 66.015 76.95 66.4537C76.7245 66.6621 76.4578 66.8209 76.1672 66.9197C75.8765 67.0186 75.5683 67.0553 75.2625 67.0275C74.9608 67.0306 74.6617 66.9723 74.3832 66.8563C74.1048 66.7402 73.8528 66.5689 73.6425 66.3525C73.2225 65.8554 73.0163 65.2124 73.0688 64.5637Z" fill="#309E3A"/>
<path d="M74.0475 64.5637C74.0475 65.07 74.1487 65.475 74.385 65.7787C74.6212 66.0487 74.925 66.2175 75.33 66.2175C75.5052 66.2298 75.6809 66.2028 75.8444 66.1386C76.0079 66.0744 76.155 65.9745 76.275 65.8462C76.5112 65.5762 76.6125 65.1712 76.6462 64.5975C76.6462 64.0575 76.5787 63.6525 76.3087 63.3825C76.1988 63.2465 76.06 63.1365 75.9024 63.0607C75.7449 62.9848 75.5724 62.9449 75.3975 62.9437C75.2199 62.9381 75.0433 62.9714 74.88 63.0414C74.7168 63.1113 74.5708 63.2163 74.4525 63.3487C74.1825 63.6187 74.0812 64.0237 74.0475 64.5637Z" fill="#F7FFFF"/>
<path d="M78.6375 66.9937L78.705 62.2687H80.73C81.2363 62.2687 81.5738 62.3362 81.81 62.4375C82.0463 62.505 82.215 62.6738 82.35 62.8763C82.485 63.0788 82.5525 63.3488 82.5525 63.6525C82.5551 63.9772 82.4345 64.2908 82.215 64.53C81.9655 64.7637 81.6444 64.9064 81.3038 64.935L81.81 65.34C81.945 65.475 82.1138 65.745 82.3163 66.1162L82.89 67.0612H81.7425L81.0675 65.9812L80.595 65.3062C80.5132 65.2134 80.4085 65.1436 80.2913 65.1037C80.1378 65.059 79.9787 65.0362 79.8188 65.0362H79.6163V66.9937H78.6375Z" fill="#309E3A"/>
<path d="M79.65 64.2937H80.325C80.7975 64.2937 81.1013 64.2937 81.2025 64.2262C81.3038 64.2262 81.405 64.125 81.4725 64.0575C81.54 63.99 81.5738 63.8212 81.5738 63.72C81.5738 63.5175 81.54 63.3825 81.4388 63.315C81.3713 63.2138 81.2363 63.1462 81.1013 63.1125H80.4263L79.65 63.0787V64.2937Z" fill="white"/>
<path d="M84.0375 62.505L85.7925 62.6062C86.1638 62.6062 86.4675 62.64 86.67 62.7075C86.9327 62.8028 87.1656 62.9658 87.345 63.18C87.5394 63.416 87.6779 63.6929 87.75 63.99C87.8513 64.2938 87.885 64.665 87.8513 65.1037C87.851 65.4482 87.7939 65.7903 87.6825 66.1162C87.5475 66.4537 87.345 66.7237 87.1088 66.9262C86.9121 67.0883 86.6814 67.2036 86.4338 67.2637C86.2313 67.3312 85.9275 67.3312 85.59 67.3312L83.8013 67.23L84.0375 62.505Z" fill="#309E3A"/>
<path d="M84.9488 63.3487L84.78 66.4875H86.0625C86.2313 66.4875 86.3663 66.42 86.4675 66.3187C86.5688 66.2175 86.67 66.0825 86.7375 65.88C86.805 65.6775 86.8725 65.3738 86.8725 65.0025L86.8388 64.1588C86.7906 63.9808 86.6976 63.8181 86.5688 63.6862C86.4567 63.5735 86.3171 63.4921 86.1638 63.45C85.9086 63.3932 85.6488 63.3593 85.3875 63.3487H84.9488Z" fill="white"/>
<path d="M107.19 70.9425L108.304 66.3525L109.789 66.69L110.869 67.0275C111.105 67.1625 111.308 67.365 111.409 67.6687C111.544 67.9387 111.544 68.2425 111.476 68.6137C111.409 68.8837 111.307 69.12 111.139 69.2887C111.015 69.437 110.86 69.5561 110.685 69.6378C110.51 69.7194 110.319 69.7616 110.126 69.7612C109.89 69.7612 109.552 69.6937 109.114 69.5925L108.54 69.4237L108.135 71.1787L107.19 70.9425Z" fill="#309E3A"/>
<path d="M109.012 67.365L108.742 68.6475L109.249 68.7825C109.586 68.85 109.856 68.9175 109.991 68.8838C110.123 68.8655 110.245 68.8071 110.342 68.7164C110.438 68.6257 110.505 68.5073 110.531 68.3775C110.531 68.2088 110.531 68.0738 110.464 67.9388C110.39 67.8016 110.27 67.6942 110.126 67.635L109.485 67.4662L109.046 67.365H109.012Z" fill="white"/>
<path d="M111.578 72.2588L113.164 67.8037L115.02 68.4787C115.526 68.6475 115.83 68.8163 116.033 68.9513C116.201 69.12 116.336 69.2888 116.37 69.5588C116.404 69.8288 116.438 70.065 116.37 70.335C116.235 70.6725 116.033 70.9088 115.763 71.0775C115.493 71.2125 115.155 71.2462 114.75 71.1787C114.885 71.3475 115.02 71.5163 115.088 71.7188L115.358 72.63L115.56 73.6763L114.514 73.305L114.176 72.09C114.115 71.8152 114.036 71.5447 113.94 71.28C113.895 71.175 113.826 71.0824 113.738 71.01C113.67 70.9087 113.535 70.8413 113.299 70.7738L113.13 70.7063L112.455 72.5963L111.578 72.2588Z" fill="#309E3A"/>
<path d="M113.4 69.9975L114.041 70.2338C114.48 70.4025 114.75 70.47 114.885 70.47C114.986 70.47 115.088 70.47 115.189 70.3687C115.29 70.3012 115.358 70.2 115.391 70.065C115.459 69.93 115.459 69.795 115.391 69.66C115.341 69.5292 115.245 69.4212 115.121 69.3562L114.446 69.12L113.771 68.8838L113.366 69.9975H113.4Z" fill="white"/>
<path d="M117.113 72.09C117.229 71.6948 117.424 71.3274 117.686 71.01C117.857 70.8064 118.063 70.6349 118.294 70.5038C118.503 70.3856 118.732 70.3056 118.969 70.2675C119.306 70.2675 119.644 70.2675 120.015 70.4025C120.317 70.4772 120.599 70.615 120.843 70.8071C121.088 70.9991 121.289 71.2408 121.432 71.5163C121.702 72.0563 121.703 72.6975 121.5 73.44C121.333 74.0779 120.92 74.6238 120.353 74.9588C119.846 75.2625 119.239 75.2963 118.597 75.0938C118.297 75.0171 118.015 74.8785 117.771 74.6867C117.527 74.4949 117.326 74.2542 117.18 73.98C117.045 73.6849 116.969 73.3661 116.958 73.0417C116.946 72.7174 116.999 72.394 117.113 72.09Z" fill="#309E3A"/>
<path d="M118.057 72.36C117.922 72.8662 117.889 73.305 118.057 73.6425C118.226 73.98 118.462 74.1825 118.834 74.3175C119.171 74.4187 119.509 74.385 119.846 74.1825C120.184 74.0138 120.386 73.6425 120.555 73.1025C120.724 72.5963 120.724 72.1912 120.555 71.8537C120.488 71.6936 120.387 71.5501 120.259 71.4335C120.131 71.3168 119.978 71.2299 119.812 71.1787C119.646 71.1214 119.47 71.1008 119.295 71.1183C119.12 71.1358 118.951 71.1909 118.8 71.28C118.462 71.4825 118.226 71.82 118.057 72.36Z" fill="white"/>
<path d="M126.326 78.6713L128.486 74.4863L130.275 75.3975C130.612 75.5593 130.92 75.776 131.186 76.0388C131.355 76.2075 131.456 76.41 131.456 76.68C131.456 76.95 131.456 77.1863 131.321 77.4225C131.192 77.726 130.95 77.9677 130.646 78.0975C130.309 78.165 129.971 78.165 129.6 78.03C129.735 78.2325 129.803 78.435 129.87 78.6038C129.938 78.8063 129.971 79.11 130.005 79.5488L130.073 80.6288L129.06 80.1225L128.925 78.8738C128.909 78.5907 128.875 78.3088 128.824 78.03C128.801 77.9037 128.742 77.7867 128.655 77.6925L128.25 77.4563L128.081 77.355L127.17 79.11L126.326 78.6713Z" fill="#309E3A"/>
<path d="M128.419 76.68L129.06 77.0175C129.465 77.22 129.735 77.355 129.836 77.355C129.938 77.355 130.073 77.355 130.174 77.2875C130.275 77.2537 130.343 77.1525 130.41 77.0175C130.478 76.8825 130.511 76.7475 130.478 76.6125C130.436 76.4781 130.353 76.3601 130.241 76.275C130.044 76.1538 129.841 76.0411 129.634 75.9375L128.959 75.6L128.419 76.68Z" fill="white"/>
<path d="M143.809 87.3113C144.027 86.9642 144.314 86.6656 144.653 86.4337C144.88 86.2884 145.131 86.1855 145.395 86.13C145.64 86.08 145.893 86.08 146.138 86.13C146.475 86.1975 146.779 86.3325 147.083 86.535C147.345 86.6986 147.571 86.9152 147.745 87.1708C147.92 87.4265 148.039 87.7157 148.095 88.02C148.196 88.5937 148.028 89.235 147.623 89.8762C147.284 90.434 146.738 90.8345 146.104 90.99C145.802 91.0553 145.489 91.0559 145.187 90.992C144.884 90.928 144.599 90.8008 144.349 90.6187C144.086 90.4551 143.86 90.2386 143.686 89.9829C143.512 89.7272 143.393 89.438 143.336 89.1337C143.235 88.5262 143.404 87.9188 143.809 87.3113Z" fill="#309E3A"/>
<path d="M144.653 87.8512C144.315 88.29 144.214 88.695 144.281 89.0662C144.306 89.2372 144.367 89.4009 144.46 89.5464C144.553 89.6919 144.677 89.8158 144.821 89.91C145.159 90.1462 145.496 90.2137 145.834 90.1125C146.171 90.0112 146.509 89.775 146.813 89.3025C147.116 88.83 147.251 88.425 147.184 88.0875C147.15 87.75 146.948 87.4462 146.644 87.21C146.34 86.9737 145.969 86.94 145.631 87.0412C145.294 87.1087 144.956 87.3787 144.619 87.8512H144.653Z" fill="white"/>
<path d="M101.857 69.0188L102.634 65.7113L105.064 66.285L104.962 66.825L103.174 66.42L103.005 67.1625L104.659 67.5338L104.524 68.1075L102.87 67.7025L102.667 68.6138L104.524 69.0525L104.389 69.5925L101.857 69.0188Z" fill="#309E3A"/>
</g>
<defs>
<clipPath id="clip0_28_9">
<rect width="216" height="162" fill="white"/>
</clipPath>
</defs>
</svg>
